<?xml version="1.0" standalone="no"?>
<!DOCTYPE svg PUBLIC "-//W3C//DTD SVG 20010904//EN"
 "http://www.w3.org/TR/2001/REC-SVG-20010904/DTD/svg10.dtd">
<svg version="1.0" xmlns="http://www.w3.org/2000/svg"
 width="700.000000pt" height="700.000000pt" viewBox="0 0 700.000000 700.000000"
 preserveAspectRatio="xMidYMid meet">
<metadata>
Created by potrace 1.14, written by Peter Selinger 2001-2017
</metadata>
<g transform="translate(0.000000,700.000000) scale(0.100000,-0.100000)"
fill="#000000" stroke="none">
<path d="M2036 6430 c-59 -23 -119 -79 -146 -136 -36 -73 -41 -195 -45 -994
-2 -426 -6 -1110 -10 -1520 -16 -2068 -19 -2897 -10 -2925 57 -170 105 -240
201 -289 175 -88 571 -22 1089 181 379 149 734 343 1044 571 63 47 119 88 125
93 42 33 233 191 260 214 6 6 43 37 81 70 113 96 384 372 466 475 396 497 551
965 505 1530 -29 365 -152 744 -342 1057 -41 68 -160 241 -174 253 -3 3 -25
30 -50 60 -152 186 -380 400 -615 577 -88 66 -321 223 -331 223 -3 0 -18 9
-33 19 -32 23 -244 132 -346 178 -287 130 -692 254 -1040 317 -208 38 -305 51
-480 61 -85 5 -107 2 -149 -15z m410 -656 c175 -72 506 -252 677 -366 384
-258 607 -554 584 -775 -15 -146 -188 -373 -418 -548 -35 -27 -66 -52 -69 -55
-3 -4 -50 -38 -106 -77 l-101 -70 -169 78 c-93 43 -230 102 -305 131 l-136 53
-1 823 c0 452 1 822 3 822 1 0 20 -7 41 -16z m1858 -749 c114 -100 195 -182
305 -310 158 -183 315 -483 380 -725 20 -74 56 -282 61 -350 25 -376 -60 -670
-288 -1000 -36 -52 -68 -97 -71 -100 -4 -3 -26 -30 -51 -60 -55 -69 -338 -355
-345 -349 -2 3 2 29 10 59 24 88 28 119 27 225 -1 292 -141 577 -418 850 -103
103 -215 196 -326 275 -27 18 -48 36 -48 39 0 4 9 12 19 18 38 24 199 163 272
235 83 83 118 122 169 188 19 25 37 47 40 50 15 13 91 143 123 212 59 124 79
206 82 348 5 175 -29 322 -112 483 -21 40 -40 76 -42 81 -6 14 107 -76 213
-169z m-1864 -1464 c0 -3 -9 -12 -20 -19 -18 -11 -20 -10 -20 12 0 19 4 23 20
19 11 -3 20 -8 20 -12z m830 -445 c390 -276 585 -587 506 -806 -63 -172 -264
-383 -566 -596 -86 -61 -258 -174 -264 -174 -2 0 -43 -24 -92 -53 -130 -78
-343 -193 -435 -233 l-25 -12 3 837 c4 771 6 837 21 846 9 5 55 28 102 50 155
75 338 171 490 257 l44 26 66 -41 c36 -23 103 -68 150 -101z"/>
</g>
</svg>
