<?xml version="1.0" encoding="UTF-8" standalone="no"?>
<!DOCTYPE svg PUBLIC "-//W3C//DTD SVG 1.1//EN" "http://www.w3.org/Graphics/SVG/1.1/DTD/svg11.dtd"
[
<!ATTLIST g
  xmlns:vectornator CDATA #FIXED "http://vectornator.io"
  vectornator:layerName CDATA #IMPLIED >
<!ATTLIST g
  xmlns:vectornator CDATA #FIXED "http://vectornator.io"
  vectornator:mask CDATA #IMPLIED >
<!ATTLIST text
  xmlns:vectornator CDATA #FIXED "http://vectornator.io"
  vectornator:width CDATA #IMPLIED >
<!ATTLIST text
  xmlns:vectornator CDATA #FIXED "http://vectornator.io"
  vectornator:text CDATA #IMPLIED >

<!ATTLIST path
  xmlns:vectornator CDATA #FIXED "http://vectornator.io"
  vectornator:blendMode CDATA #IMPLIED >
<!ATTLIST path
  xmlns:vectornator CDATA #FIXED "http://vectornator.io"
  vectornator:shadowColor CDATA #IMPLIED >
<!ATTLIST path
  xmlns:vectornator CDATA #FIXED "http://vectornator.io"
  vectornator:shadowOpacity CDATA #IMPLIED >
<!ATTLIST path
  xmlns:vectornator CDATA #FIXED "http://vectornator.io"
  vectornator:shadowRadius CDATA #IMPLIED >
<!ATTLIST path
  xmlns:vectornator CDATA #FIXED "http://vectornator.io"
  vectornator:shadowOffset CDATA #IMPLIED >
<!ATTLIST path
  xmlns:vectornator CDATA #FIXED "http://vectornator.io"
  vectornator:shadowAngle CDATA #IMPLIED >

<!ATTLIST image
  xmlns:vectornator CDATA #FIXED "http://vectornator.io"
  vectornator:blendMode CDATA #IMPLIED >
<!ATTLIST image
  xmlns:vectornator CDATA #FIXED "http://vectornator.io"
  vectornator:shadowColor CDATA #IMPLIED >
<!ATTLIST image
  xmlns:vectornator CDATA #FIXED "http://vectornator.io"
  vectornator:shadowOpacity CDATA #IMPLIED >
<!ATTLIST image
  xmlns:vectornator CDATA #FIXED "http://vectornator.io"
  vectornator:shadowRadius CDATA #IMPLIED >
<!ATTLIST image
  xmlns:vectornator CDATA #FIXED "http://vectornator.io"
  vectornator:shadowOffset CDATA #IMPLIED >
<!ATTLIST image
  xmlns:vectornator CDATA #FIXED "http://vectornator.io"
  vectornator:shadowAngle CDATA #IMPLIED >

<!ATTLIST g
  xmlns:vectornator CDATA #FIXED "http://vectornator.io"
  vectornator:blendMode CDATA #IMPLIED >
<!ATTLIST g
  xmlns:vectornator CDATA #FIXED "http://vectornator.io"
  vectornator:shadowColor CDATA #IMPLIED >
<!ATTLIST g
  xmlns:vectornator CDATA #FIXED "http://vectornator.io"
  vectornator:shadowOpacity CDATA #IMPLIED >
<!ATTLIST g
  xmlns:vectornator CDATA #FIXED "http://vectornator.io"
  vectornator:shadowRadius CDATA #IMPLIED >
<!ATTLIST g
  xmlns:vectornator CDATA #FIXED "http://vectornator.io"
  vectornator:shadowOffset CDATA #IMPLIED >
<!ATTLIST g
  xmlns:vectornator CDATA #FIXED "http://vectornator.io"
  vectornator:shadowAngle CDATA #IMPLIED >

<!ENTITY % SVG.filter.extra.content  "| feDropShadow" >
<!ELEMENT feDropShadow EMPTY>
<!ATTLIST feDropShadow
  xmlns:svg CDATA #FIXED "http://www.w3.org/Graphics/SVG/1.1/DTD/svg11.dtd"
  dx CDATA #IMPLIED>
<!ATTLIST feDropShadow
  xmlns:svg CDATA #FIXED "http://www.w3.org/Graphics/SVG/1.1/DTD/svg11.dtd"
  dy CDATA #IMPLIED>
<!ATTLIST feDropShadow
  xmlns:svg CDATA #FIXED "http://www.w3.org/Graphics/SVG/1.1/DTD/svg11.dtd"
  stdDeviation CDATA #IMPLIED>
<!ATTLIST feDropShadow
  xmlns:svg CDATA #FIXED "http://www.w3.org/Graphics/SVG/1.1/DTD/svg11.dtd"
  flood-opacity CDATA #IMPLIED>
<!ATTLIST feDropShadow
  xmlns:svg CDATA #FIXED "http://www.w3.org/Graphics/SVG/1.1/DTD/svg11.dtd"
  in CDATA #IMPLIED>
<!ATTLIST feDropShadow
  xmlns:svg CDATA #FIXED "http://www.w3.org/Graphics/SVG/1.1/DTD/svg11.dtd"
  result CDATA #IMPLIED>
<!ATTLIST feDropShadow
  xmlns:svg CDATA #FIXED "http://www.w3.org/Graphics/SVG/1.1/DTD/svg11.dtd"
  flood-color CDATA #IMPLIED>
]
>
<!-- Created with Vectornator (http://vectornator.io/) -->
<svg height="100%" stroke-miterlimit="10" style="fill-rule:nonzero;clip-rule:evenodd;stroke-linecap:round;stroke-linejoin:round;" version="1.1" viewBox="0 0 1024 1024" width="100%" xml:space="preserve" xmlns="http://www.w3.org/2000/svg" xmlns:vectornator="http://vectornator.io" xmlns:xlink="http://www.w3.org/1999/xlink">
<defs/>
<g id="레이어-2" vectornator:layerName="레이어 2">
<g opacity="1">
<path d="M314.75 80.2812C292.364 79.2003 273.331 96.458 272.25 118.844C272.002 123.988 272.846 128.919 274.375 133.531C273.396 705.518 274.521 525.275 273.312 723.25C273.015 772.004 272.65 820.752 271.812 869.5C271.676 877.465 271.538 885.442 271.344 893.406C271.255 897.047 270.964 900.739 271.188 904.375C271.347 906.968 271.63 909.22 272.219 911.75C274.099 919.831 278.344 927.248 284.312 933C296.655 944.895 313.63 947.531 330.062 947C343.534 946.565 356.933 944.332 370.094 941.531C386.828 937.97 403.338 933.289 419.594 927.969C446.663 919.109 473.107 908.379 498.844 896.188C531.025 880.942 562.113 863.308 591.562 843.281C613.404 828.429 634.051 812.051 654.312 795.125C684.26 770.108 713.224 743.697 738.594 713.969C765.15 682.85 787.671 648.011 802.094 609.594C810.97 585.951 816.669 561.163 818.875 536C819.524 528.598 819.861 521.194 819.906 513.781C819.952 506.368 819.728 498.942 819.281 491.531C817.62 464.006 812.898 436.631 805.062 410.188C794.347 374.027 777.629 339.855 756.156 308.875C734.663 277.864 708.644 250.168 680.156 225.5C665.954 213.202 651.128 201.621 635.875 190.656C619.813 179.111 603.314 168.283 586.062 158.594C533.047 128.817 474.885 108.534 415.656 95.3125C394.952 90.6908 374.059 86.9342 353.031 84.125C340.336 82.429 353.021 84.1248 314.75 80.2812ZM351.25 165.844C358.613 166.932 365.96 168.1 373.281 169.438C413.718 176.823 453.649 187.815 491.812 203.156C514.471 212.265 536.507 222.963 557.438 235.562C566.105 240.78 574.529 246.382 582.812 252.188C592.517 258.988 602.035 266.034 611.312 273.406C635.986 293.011 659.038 314.894 678.562 339.688C697.234 363.398 712.504 389.779 722.875 418.156C729.968 437.564 734.734 457.785 737.312 478.281C740.096 500.403 740.641 522.655 736.969 544.719C735.542 553.291 733.511 561.755 730.969 570.062C714.323 624.451 675.519 669.183 634.438 707.062C627.53 713.432 620.488 719.644 613.375 725.781C605.535 732.546 597.576 739.16 589.562 745.719C580.769 752.916 571.897 760.004 562.75 766.75C544.862 779.942 526.176 792.053 506.906 803.125C473.497 822.322 438.263 838.581 401.844 851.188C388.597 855.773 375.155 859.871 361.531 863.188C357.652 864.132 353.734 864.983 349.812 865.781C350.026 849.037 350.189 832.276 350.312 815.531C350.741 757.485 350.913 699.454 351.062 641.406C351.255 566.494 351.326 491.569 351.344 416.656C351.363 333.053 351.325 326.378 351.25 165.844Z" fill="#ff0000" stroke="none"/>
</g>
</g>
<g id="레이어-1" vectornator:layerName="레이어 1">
<g opacity="1">
<path d="M308.844 98.6875C287.625 98.6253 270.375 115.781 270.312 137C270.048 212.075 269.799 287.145 269.312 362.219C268.598 472.448 267.489 582.676 266.781 692.906C266.36 758.429 266.208 823.976 265.938 889.5C265.872 911.912 283.995 930.122 306.406 930.188C328.818 930.253 347.028 912.13 347.094 889.719C347.207 824.195 347.443 758.681 347.406 693.156C347.344 582.924 346.913 472.701 346.844 362.469C346.797 287.393 346.981 212.294 347.156 137.219C347.218 116 330.062 98.7497 308.844 98.6875Z" fill="#ff0000" stroke="none"/>
</g>
</g>
<g id="레이어-3" vectornator:layerName="레이어 3">
<g opacity="1">
<path d="M308.781 81.6875C293.86 82.9205 280.378 92.8823 275.406 108C268.778 128.157 279.749 149.84 299.906 156.469C299.905 156.468 300.073 156.555 300.094 156.562C300.21 156.602 300.319 156.616 300.438 156.656C300.703 156.746 300.953 156.847 301.219 156.938C301.917 157.176 302.615 157.413 303.312 157.656C305.609 158.456 307.903 159.262 310.188 160.094C316.927 162.549 323.648 165.128 330.312 167.781C350.553 175.839 370.484 184.692 390 194.375C415.064 206.811 439.498 220.721 462.469 236.719C480.663 249.39 498.059 263.534 512.875 280.094C522.909 291.309 531.984 303.838 537.562 317.906C540.683 325.776 542.79 334.273 542.781 342.781C542.774 350.38 540.243 357.837 536.938 364.594C530.644 377.46 521.36 388.779 511.531 399.094C495.269 416.16 476.662 430.858 457.469 444.469C434.504 460.753 410.37 475.391 385.719 488.969C367.261 499.135 348.49 508.718 329.438 517.719C323.138 520.695 316.805 523.607 310.438 526.438C308.201 527.432 305.967 528.406 303.719 529.375C302.994 529.687 302.258 530.005 301.531 530.312C301.325 530.4 301.143 530.476 300.938 530.562C300.856 530.597 300.606 530.722 300.688 530.688C280.003 539.316 270.246 563.066 278.875 583.75C285.347 599.263 300.311 608.641 316.125 608.719C321.396 608.745 326.766 607.751 331.938 605.594C345.402 599.967 358.621 593.71 371.75 587.344C392.788 577.143 413.539 566.29 433.875 554.75C451.412 544.798 468.649 534.328 485.438 523.156C507.253 508.639 528.338 492.928 547.844 475.406C553.21 470.586 558.453 465.623 563.531 460.5C589.253 434.549 612.304 403.001 619.562 366.5C620.962 359.46 621.772 352.272 621.875 345.094C621.967 338.696 621.502 332.308 620.656 325.969C615.589 288.002 595.439 254.441 569.812 226.688C553.434 208.95 534.818 193.381 515.281 179.25C488.885 160.158 460.592 143.736 431.531 129.062C409.727 118.053 387.449 107.956 364.812 98.7812C351.331 93.3169 337.731 88.046 323.906 83.5C318.867 81.8429 313.755 81.2765 308.781 81.6875Z" fill="#ff0000" stroke="none"/>
</g>
<g opacity="1">
<path d="M321.094 410.531C306.172 411.764 292.721 421.726 287.75 436.844C281.122 457.001 292.093 478.715 312.25 485.344C312.249 485.343 312.417 485.399 312.438 485.406C312.556 485.446 312.629 485.491 312.75 485.531C313.016 485.621 313.297 485.691 313.562 485.781C314.261 486.02 314.959 486.257 315.656 486.5C317.952 487.3 320.247 488.137 322.531 488.969C329.271 491.424 335.961 493.972 342.625 496.625C362.866 504.683 382.796 513.535 402.312 523.219C427.376 535.654 451.81 549.564 474.781 565.562C492.976 578.234 510.403 592.378 525.219 608.938C535.253 620.153 544.328 632.682 549.906 646.75C553.027 654.62 555.133 663.148 555.125 671.656C555.117 679.255 552.586 686.68 549.281 693.438C542.988 706.304 533.704 717.623 523.875 727.938C507.613 745.004 488.974 759.702 469.781 773.312C446.817 789.597 422.714 804.266 398.062 817.844C379.605 828.01 360.834 837.593 341.781 846.594C335.481 849.57 329.148 852.482 322.781 855.312C320.544 856.307 318.28 857.282 316.031 858.25C315.307 858.562 314.601 858.88 313.875 859.188C313.678 859.271 313.479 859.355 313.281 859.438C313.2 859.472 312.95 859.565 313.031 859.531C292.347 868.16 282.559 891.91 291.188 912.594C297.659 928.107 312.655 937.485 328.469 937.562C333.74 937.588 339.11 936.595 344.281 934.438C357.746 928.811 370.965 922.553 384.094 916.188C405.132 905.986 425.852 895.165 446.188 883.625C463.725 873.673 480.962 863.172 497.75 852C519.566 837.482 540.65 821.772 560.156 804.25C565.522 799.43 570.766 794.467 575.844 789.344C601.565 763.393 624.648 731.845 631.906 695.344C633.306 688.304 634.084 681.147 634.188 673.969C634.28 667.571 633.815 661.152 632.969 654.812C627.901 616.845 607.783 583.316 582.156 555.562C565.778 537.825 547.131 522.256 527.594 508.125C501.198 489.033 472.935 472.579 443.875 457.906C422.071 446.897 399.793 436.831 377.156 427.656C363.674 422.192 350.075 416.89 336.25 412.344C331.211 410.687 326.068 410.12 321.094 410.531Z" fill="#ff0000" stroke="none"/>
</g>
</g>
</svg>
