<?xml version="1.0" encoding="UTF-8" standalone="no"?>
<!DOCTYPE svg PUBLIC "-//W3C//DTD SVG 1.1//EN" "http://www.w3.org/Graphics/SVG/1.1/DTD/svg11.dtd"
[
<!ATTLIST g
  xmlns:vectornator CDATA #FIXED "http://vectornator.io"
  vectornator:layerName CDATA #IMPLIED >
<!ATTLIST g
  xmlns:vectornator CDATA #FIXED "http://vectornator.io"
  vectornator:mask CDATA #IMPLIED >
<!ATTLIST text
  xmlns:vectornator CDATA #FIXED "http://vectornator.io"
  vectornator:width CDATA #IMPLIED >
<!ATTLIST text
  xmlns:vectornator CDATA #FIXED "http://vectornator.io"
  vectornator:text CDATA #IMPLIED >

<!ATTLIST path
  xmlns:vectornator CDATA #FIXED "http://vectornator.io"
  vectornator:blendMode CDATA #IMPLIED >
<!ATTLIST path
  xmlns:vectornator CDATA #FIXED "http://vectornator.io"
  vectornator:shadowColor CDATA #IMPLIED >
<!ATTLIST path
  xmlns:vectornator CDATA #FIXED "http://vectornator.io"
  vectornator:shadowOpacity CDATA #IMPLIED >
<!ATTLIST path
  xmlns:vectornator CDATA #FIXED "http://vectornator.io"
  vectornator:shadowRadius CDATA #IMPLIED >
<!ATTLIST path
  xmlns:vectornator CDATA #FIXED "http://vectornator.io"
  vectornator:shadowOffset CDATA #IMPLIED >
<!ATTLIST path
  xmlns:vectornator CDATA #FIXED "http://vectornator.io"
  vectornator:shadowAngle CDATA #IMPLIED >

<!ATTLIST image
  xmlns:vectornator CDATA #FIXED "http://vectornator.io"
  vectornator:blendMode CDATA #IMPLIED >
<!ATTLIST image
  xmlns:vectornator CDATA #FIXED "http://vectornator.io"
  vectornator:shadowColor CDATA #IMPLIED >
<!ATTLIST image
  xmlns:vectornator CDATA #FIXED "http://vectornator.io"
  vectornator:shadowOpacity CDATA #IMPLIED >
<!ATTLIST image
  xmlns:vectornator CDATA #FIXED "http://vectornator.io"
  vectornator:shadowRadius CDATA #IMPLIED >
<!ATTLIST image
  xmlns:vectornator CDATA #FIXED "http://vectornator.io"
  vectornator:shadowOffset CDATA #IMPLIED >
<!ATTLIST image
  xmlns:vectornator CDATA #FIXED "http://vectornator.io"
  vectornator:shadowAngle CDATA #IMPLIED >

<!ATTLIST g
  xmlns:vectornator CDATA #FIXED "http://vectornator.io"
  vectornator:blendMode CDATA #IMPLIED >
<!ATTLIST g
  xmlns:vectornator CDATA #FIXED "http://vectornator.io"
  vectornator:shadowColor CDATA #IMPLIED >
<!ATTLIST g
  xmlns:vectornator CDATA #FIXED "http://vectornator.io"
  vectornator:shadowOpacity CDATA #IMPLIED >
<!ATTLIST g
  xmlns:vectornator CDATA #FIXED "http://vectornator.io"
  vectornator:shadowRadius CDATA #IMPLIED >
<!ATTLIST g
  xmlns:vectornator CDATA #FIXED "http://vectornator.io"
  vectornator:shadowOffset CDATA #IMPLIED >
<!ATTLIST g
  xmlns:vectornator CDATA #FIXED "http://vectornator.io"
  vectornator:shadowAngle CDATA #IMPLIED >

<!ENTITY % SVG.filter.extra.content  "| feDropShadow" >
<!ELEMENT feDropShadow EMPTY>
<!ATTLIST feDropShadow
  xmlns:svg CDATA #FIXED "http://www.w3.org/Graphics/SVG/1.1/DTD/svg11.dtd"
  dx CDATA #IMPLIED>
<!ATTLIST feDropShadow
  xmlns:svg CDATA #FIXED "http://www.w3.org/Graphics/SVG/1.1/DTD/svg11.dtd"
  dy CDATA #IMPLIED>
<!ATTLIST feDropShadow
  xmlns:svg CDATA #FIXED "http://www.w3.org/Graphics/SVG/1.1/DTD/svg11.dtd"
  stdDeviation CDATA #IMPLIED>
<!ATTLIST feDropShadow
  xmlns:svg CDATA #FIXED "http://www.w3.org/Graphics/SVG/1.1/DTD/svg11.dtd"
  flood-opacity CDATA #IMPLIED>
<!ATTLIST feDropShadow
  xmlns:svg CDATA #FIXED "http://www.w3.org/Graphics/SVG/1.1/DTD/svg11.dtd"
  in CDATA #IMPLIED>
<!ATTLIST feDropShadow
  xmlns:svg CDATA #FIXED "http://www.w3.org/Graphics/SVG/1.1/DTD/svg11.dtd"
  result CDATA #IMPLIED>
<!ATTLIST feDropShadow
  xmlns:svg CDATA #FIXED "http://www.w3.org/Graphics/SVG/1.1/DTD/svg11.dtd"
  flood-color CDATA #IMPLIED>
]
>
<!-- Created with Vectornator (http://vectornator.io/) -->
<svg height="100%" stroke-miterlimit="10" style="fill-rule:nonzero;clip-rule:evenodd;stroke-linecap:round;stroke-linejoin:round;" version="1.1" viewBox="0 0 1024 1024" width="100%" xml:space="preserve" xmlns="http://www.w3.org/2000/svg" xmlns:vectornator="http://vectornator.io" xmlns:xlink="http://www.w3.org/1999/xlink">
<defs/>
<g id="레이어-8" vectornator:layerName="레이어 8">
<path d="M179.509 493.411L181.356 565.855L445.065 584.173L575.774 585.755L848.777 579.252L842.967 503.343L179.509 493.411Z" fill="#000000" fill-rule="evenodd" opacity="1" stroke="#ffffff" stroke-linecap="round" stroke-linejoin="round" stroke-width="3.03"/>
<path d="M263.767 583.727C263.741 579.247 268.62 575.586 274.666 575.55C280.712 575.514 285.635 579.116 285.662 583.595C285.689 588.075 280.809 591.736 274.763 591.772C268.717 591.808 263.794 588.206 263.767 583.727Z" fill="#000000" fill-rule="evenodd" opacity="1" stroke="#ffffff" stroke-linecap="round" stroke-linejoin="round" stroke-width="3.03"/>
<path d="M332.273 583.552C332.247 579.072 337.126 575.411 343.172 575.375C349.218 575.339 354.141 578.941 354.168 583.421C354.195 587.901 349.315 591.561 343.269 591.598C337.223 591.634 332.3 588.032 332.273 583.552Z" fill="#000000" fill-rule="evenodd" opacity="1" stroke="#ffffff" stroke-linecap="round" stroke-linejoin="round" stroke-width="3.03"/>
<path d="M668.859 583.783C668.832 579.303 673.711 575.642 679.757 575.606C685.803 575.57 690.726 579.172 690.753 583.652C690.78 588.131 685.901 591.792 679.855 591.828C673.809 591.865 668.886 588.262 668.859 583.783Z" fill="#000000" fill-rule="evenodd" opacity="1" stroke="#ffffff" stroke-linecap="round" stroke-linejoin="round" stroke-width="3.03"/>
<path d="M737.811 584.813C737.784 580.334 742.664 576.673 748.71 576.636C754.756 576.6 759.679 580.202 759.705 584.682C759.732 589.162 754.853 592.823 748.807 592.859C742.761 592.895 737.838 589.293 737.811 584.813Z" fill="#000000" fill-rule="evenodd" opacity="1" stroke="#ffffff" stroke-linecap="round" stroke-linejoin="round" stroke-width="3.03"/>
<path d="M699.138 576.332L730.616 576.143C733.588 576.125 736.019 579.513 736.044 583.71L736.044 583.71C736.069 587.907 733.679 591.324 730.707 591.342L699.229 591.531C696.256 591.548 693.826 588.16 693.801 583.963L693.801 583.963C693.776 579.766 696.165 576.35 699.138 576.332Z" fill="#000000" fill-rule="evenodd" opacity="1" stroke="#ffffff" stroke-linecap="round" stroke-linejoin="round" stroke-width="3.03"/>
<path d="M295.547 574.916L327.025 574.728C329.998 574.71 332.428 578.098 332.453 582.295L332.453 582.295C332.478 586.492 330.089 589.909 327.116 589.926L295.638 590.115C292.666 590.133 290.235 586.745 290.21 582.548L290.21 582.548C290.185 578.351 292.575 574.934 295.547 574.916Z" fill="#000000" fill-rule="evenodd" opacity="1" stroke="#ffffff" stroke-linecap="round" stroke-linejoin="round" stroke-width="3.03"/>
</g>
<g id="레이어-6" vectornator:layerName="레이어 6">
<path d="M378.063 472.654L403.746 472.746L405.872 580.418L376.807 579.886L378.063 472.654Z" fill="#a6a6a6" fill-rule="evenodd" opacity="1" stroke="#ffffff" stroke-linecap="round" stroke-linejoin="round" stroke-width="3.02966"/>
<path d="M614.607 474.471L647.294 474.455L646.133 580.424L617.226 581.855L614.607 474.471Z" fill="#a6a6a6" fill-rule="evenodd" opacity="1" stroke="#ffffff" stroke-linecap="round" stroke-linejoin="round" stroke-width="3.02966"/>
<path d="M383.5 473.94L381.681 580.116" fill="#a6a6a6" fill-rule="evenodd" opacity="1" stroke="#ffffff" stroke-linecap="round" stroke-linejoin="round" stroke-width="0.596725"/>
<path d="M381.696 473.751L379.878 579.926" fill="#a6a6a6" fill-rule="evenodd" opacity="1" stroke="#ffffff" stroke-linecap="round" stroke-linejoin="round" stroke-width="0.596725"/>
<path d="M382.094 473.348L380.276 579.523" fill="#a6a6a6" fill-rule="evenodd" opacity="1" stroke="#ffffff" stroke-linecap="round" stroke-linejoin="round" stroke-width="0.596725"/>
<path d="M619.032 474.722L621.104 580.893" fill="#a6a6a6" fill-rule="evenodd" opacity="1" stroke="#ffffff" stroke-linecap="round" stroke-linejoin="round" stroke-width="0.596725"/>
<path d="M621.468 475.171L623.541 581.342" fill="#a6a6a6" fill-rule="evenodd" opacity="1" stroke="#ffffff" stroke-linecap="round" stroke-linejoin="round" stroke-width="0.596725"/>
<path d="M624.016 474.924L626.089 581.095" fill="#a6a6a6" fill-rule="evenodd" opacity="1" stroke="#ffffff" stroke-linecap="round" stroke-linejoin="round" stroke-width="0.596725"/>
<path d="M626.682 474.908L628.754 581.079" fill="#a6a6a6" fill-rule="evenodd" opacity="1" stroke="#ffffff" stroke-linecap="round" stroke-linejoin="round" stroke-width="0.596725"/>
<path d="M629.692 474.543L631.765 580.713" fill="#a6a6a6" fill-rule="evenodd" opacity="1" stroke="#ffffff" stroke-linecap="round" stroke-linejoin="round" stroke-width="0.596725"/>
<path d="M632.358 474.643L634.431 580.813" fill="#a6a6a6" fill-rule="evenodd" opacity="1" stroke="#ffffff" stroke-linecap="round" stroke-linejoin="round" stroke-width="0.596725"/>
<path d="M635.022 474.395L637.094 580.566" fill="#a6a6a6" fill-rule="evenodd" opacity="1" stroke="#ffffff" stroke-linecap="round" stroke-linejoin="round" stroke-width="0.596725"/>
<path d="M638.034 474.145L640.106 580.316" fill="#a6a6a6" fill-rule="evenodd" opacity="1" stroke="#ffffff" stroke-linecap="round" stroke-linejoin="round" stroke-width="0.596725"/>
<path d="M640.699 474.245L642.772 580.416" fill="#a6a6a6" fill-rule="evenodd" opacity="1" stroke="#ffffff" stroke-linecap="round" stroke-linejoin="round" stroke-width="0.596725"/>
<path d="M643.133 474.23L645.205 580.401" fill="#a6a6a6" fill-rule="evenodd" opacity="1" stroke="#ffffff" stroke-linecap="round" stroke-linejoin="round" stroke-width="0.596725"/>
<path d="M386.569 474.075L384.75 580.251" fill="#a6a6a6" fill-rule="evenodd" opacity="1" stroke="#ffffff" stroke-linecap="round" stroke-linejoin="round" stroke-width="0.596725"/>
<path d="M389.636 473.903L387.817 580.079" fill="#a6a6a6" fill-rule="evenodd" opacity="1" stroke="#ffffff" stroke-linecap="round" stroke-linejoin="round" stroke-width="0.596725"/>
<path d="M393.469 473.574L391.651 579.749" fill="#a6a6a6" fill-rule="evenodd" opacity="1" stroke="#ffffff" stroke-linecap="round" stroke-linejoin="round" stroke-width="0.596725"/>
<path d="M393.469 473.574L391.651 579.749" fill="#a6a6a6" fill-rule="evenodd" opacity="1" stroke="#ffffff" stroke-linecap="round" stroke-linejoin="round" stroke-width="0.596725"/>
<path d="M396.382 473.249L394.564 579.425" fill="#a6a6a6" fill-rule="evenodd" opacity="1" stroke="#ffffff" stroke-linecap="round" stroke-linejoin="round" stroke-width="0.596725"/>
<path d="M399.451 473.231L397.632 579.406" fill="#a6a6a6" fill-rule="evenodd" opacity="1" stroke="#ffffff" stroke-linecap="round" stroke-linejoin="round" stroke-width="0.596725"/>
<path d="M402.059 473.215L400.24 579.391" fill="#a6a6a6" fill-rule="evenodd" opacity="1" stroke="#ffffff" stroke-linecap="round" stroke-linejoin="round" stroke-width="0.596725"/>
</g>
<g id="레이어-7" vectornator:layerName="레이어 7">
<path d="M180.416 498.276C180.416 498.276 182.361 510.942 182.67 524.005C182.979 537.068 181.448 551.008 181.448 551.008L195.4 551.507L198.638 498.549L180.416 498.276Z" fill="#1c1e27" fill-rule="evenodd" opacity="1" stroke="#ffffff" stroke-linecap="round" stroke-linejoin="round" stroke-width="3.03"/>
<path d="M205.598 498.42C205.598 498.42 203.681 528.916 203.619 549.693C203.557 570.469 205.349 581.525 205.349 581.525L243.598 582.271C243.598 582.271 244.241 563.526 243.719 542.559C243.184 521.06 246.404 498.423 246.404 498.423L205.598 498.42Z" fill="#1c1e27" fill-rule="evenodd" opacity="1" stroke="#ffffff" stroke-linecap="round" stroke-linejoin="round" stroke-width="3.03"/>
<path d="M252.026 498.702C252.026 498.702 249.698 510.177 249.247 522.495C248.796 534.814 250.22 547.976 250.22 547.976L305.478 548.899C305.478 548.899 308.25 527.083 307.793 514.926C307.336 502.769 300.875 499.345 300.875 499.345L252.026 498.702Z" fill="#1c1e27" fill-rule="evenodd" opacity="1" stroke="#ffffff" stroke-linecap="round" stroke-linejoin="round" stroke-width="3.03"/>
<path d="M317.627 499.416C317.627 499.416 312.206 512.351 311.57 524.729C310.934 537.107 315.085 548.928 315.085 548.928L359.351 549.143C359.351 549.143 362.774 535.358 362.339 522.918C361.903 510.477 357.609 499.381 357.609 499.381L317.627 499.416Z" fill="#1c1e27" fill-rule="evenodd" opacity="1" stroke="#ffffff" stroke-linecap="round" stroke-linejoin="round" stroke-width="3.03"/>
<path d="M376.81 499.718L371.716 499.607C371.716 499.607 367.789 512.295 367.758 524.886C367.728 537.477 370.953 549.268 370.953 549.268L375.41 549.454L376.81 499.718Z" fill="#1c1e27" fill-rule="evenodd" opacity="1" stroke="#ffffff" stroke-linecap="round" stroke-linejoin="round" stroke-width="3.03"/>
<path d="M405.517 553.223L406.557 496.434L411.138 496.533L409.532 553.199L405.517 553.223Z" fill="#1c1e27" fill-rule="evenodd" opacity="1" stroke="#ffffff" stroke-linecap="round" stroke-linejoin="round" stroke-width="3.03"/>
<path d="M421.064 497.501L418.632 583.068L441.796 583.804L442.95 497.529L421.064 497.501Z" fill="#1c1e27" fill-rule="evenodd" opacity="1" stroke="#ffffff" stroke-linecap="round" stroke-linejoin="round" stroke-width="3.03"/>
<path d="M450.532 498.011L447.792 583.579L473.374 584.302L474.703 498.026L450.532 498.011Z" fill="#1c1e27" fill-rule="evenodd" opacity="1" stroke="#ffffff" stroke-linecap="round" stroke-linejoin="round" stroke-width="3.03"/>
<path d="M480.34 551.331L540.724 551.475C540.724 551.475 540.1 536.707 539.724 523.813C539.347 510.918 540.166 498.503 540.166 498.503L481.569 498.452C481.569 498.452 482.531 511.657 482.224 524.877C481.917 538.097 480.34 551.331 480.34 551.331Z" fill="#1c1e27" fill-rule="evenodd" opacity="1" stroke="#ffffff" stroke-linecap="round" stroke-linejoin="round" stroke-width="3.03"/>
<path d="M548.886 498.516L545.13 585.111L575.893 585.372L575.373 499.054L548.886 498.516Z" fill="#1c1e27" fill-rule="evenodd" opacity="1" stroke="#ffffff" stroke-linecap="round" stroke-linejoin="round" stroke-width="3.03"/>
<path d="M584.595 499.044L580.838 585.639L611.601 585.9L611.082 499.582L584.595 499.044Z" fill="#1c1e27" fill-rule="evenodd" opacity="1" stroke="#ffffff" stroke-linecap="round" stroke-linejoin="round" stroke-width="3.03"/>
<path d="M585.925 497.634L581.783 586.375L615.41 586.63L614.877 498.175L585.925 497.634Z" fill="#1c1e27" fill-rule="evenodd" opacity="1" stroke="#ffffff" stroke-linecap="round" stroke-linejoin="round" stroke-width="3.03"/>
<path d="M662.051 500.685C662.051 500.685 658.419 517.65 658.184 530.74C657.949 543.83 661.112 553.045 661.112 553.045L713.782 553.633C713.782 553.633 715.781 541.076 715.223 528.272C714.664 515.468 711.548 502.417 711.548 502.417L662.051 500.685Z" fill="#1c1e27" fill-rule="evenodd" opacity="1" stroke="#ffffff" stroke-linecap="round" stroke-linejoin="round" stroke-width="3.03"/>
<path d="M731.123 502.165C731.123 502.165 724.624 518.584 723.452 531.549C722.281 544.514 726.438 554.025 726.438 554.025L768.15 554.722C768.15 554.722 773.297 542.883 774.32 530.046C775.344 517.208 772.243 503.371 772.243 503.371L731.123 502.165Z" fill="#1c1e27" fill-rule="evenodd" opacity="1" stroke="#ffffff" stroke-linecap="round" stroke-linejoin="round" stroke-width="3.03"/>
<path d="M782.147 504.019C782.147 504.019 783.854 515.585 783.09 534.736C782.326 553.887 779.092 580.622 779.092 580.622L818.68 580.85L821.195 502.784L782.147 504.019Z" fill="#1c1e27" fill-rule="evenodd" opacity="1" stroke="#ffffff" stroke-linecap="round" stroke-linejoin="round" stroke-width="3.03"/>
<path d="M825.528 504.311L825.091 552.193L844.967 552.119L845.006 504.333L825.528 504.311Z" fill="#1c1e27" fill-rule="evenodd" opacity="1" stroke="#ffffff" stroke-linecap="round" stroke-linejoin="round" stroke-width="3.03"/>
</g>
<g id="레이어-3" vectornator:layerName="레이어 3">
<path d="M126 581.076C126 581.076 127.284 558.737 141.648 550.261C145.39 548.054 203.095 551.193 203.095 551.193L205.761 581.898L126 581.076Z" fill="#fa413c" fill-rule="evenodd" opacity="1" stroke="#ffffff" stroke-linecap="round" stroke-linejoin="round" stroke-width="3.02966"/>
<path d="M245.59 548.876L243.674 582.283L375.68 582.205L376.621 550.01L245.59 548.876Z" fill="#fa413c" fill-rule="evenodd" opacity="1" stroke="#ffffff" stroke-linecap="round" stroke-linejoin="round" stroke-width="3.02966"/>
<path d="M404.873 553.27L406.53 583.325L415.037 583.941L413.998 559.62C413.998 559.62 412.897 555.859 410.754 554.397C408.612 552.934 404.873 553.27 404.873 553.27Z" fill="#fa413c" fill-rule="evenodd" opacity="1" stroke="#ffffff" stroke-linecap="round" stroke-linejoin="round" stroke-width="3.02966"/>
<path d="M474.87 584.037L476.426 551.916C476.426 551.916 495.927 548.629 512.345 548.608C528.763 548.587 545.257 550.91 545.257 550.91L546.127 585.342L474.87 584.037Z" fill="#fa413c" fill-rule="evenodd" opacity="1" stroke="#ffffff" stroke-linecap="round" stroke-linejoin="round" stroke-width="3.02966"/>
<path d="M617.481 552.661L617.232 586.711L608.624 586.309L609.446 559.73C609.446 559.73 610.787 556.174 612.647 554.671C614.506 553.169 617.481 552.661 617.481 552.661Z" fill="#fa413c" fill-rule="evenodd" opacity="1" stroke="#ffffff" stroke-linecap="round" stroke-linejoin="round" stroke-width="3.02966"/>
<path d="M645.183 583.075L645.892 554.011L771.393 554.621C771.393 554.621 775.465 560.582 777.281 567.238C779.097 573.894 778.378 581.241 778.378 581.241L645.183 583.075Z" fill="#fa413c" fill-rule="evenodd" opacity="1" stroke="#ffffff" stroke-linecap="round" stroke-linejoin="round" stroke-width="3.02966"/>
<path d="M817.72 580.107L819.666 551.509L884.356 551.227C884.356 551.227 890.782 556.701 893.736 563.724C896.69 570.748 897.548 579.523 895.961 579.745C884.242 581.379 817.72 580.107 817.72 580.107Z" fill="#fa413c" fill-rule="evenodd" opacity="1" stroke="#ffffff" stroke-linecap="round" stroke-linejoin="round" stroke-width="3.02966"/>
<path d="M172.266 487.595C172.266 487.595 177.957 480.009 188.223 475.629C198.49 471.248 213.332 470.073 213.332 470.073L376.267 470.09L375.815 491.46L172.266 487.595Z" fill="#fa413c" fill-rule="evenodd" opacity="1" stroke="#ffffff" stroke-linecap="round" stroke-linejoin="round" stroke-width="3.02966"/>
<path d="M402.03 471.895L406.585 490.279L613.828 493.019L613.677 472.78L402.03 471.895Z" fill="#fa413c" fill-rule="evenodd" opacity="1" stroke="#ffffff" stroke-linecap="round" stroke-linejoin="round" stroke-width="3.02966"/>
<path d="M642.337 471.362L643.667 492.835L862.462 495.038C862.462 495.038 855.744 478.441 828.888 472.243C796.752 464.826 642.337 471.362 642.337 471.362Z" fill="#fa413c" fill-rule="evenodd" opacity="1" stroke="#ffffff" stroke-linecap="round" stroke-linejoin="round" stroke-width="3.02966"/>
</g>
<g id="레이어-1" vectornator:layerName="레이어 1"/>
<g id="레이어-4" vectornator:layerName="레이어 4">
<path d="M133.944 543.104C133.944 543.104 137.921 506.771 169.362 481.631C193.673 462.192 218.098 469.149 218.098 469.149C218.098 469.149 186.056 471.803 172.068 486.433C156.286 502.938 155.031 510.871 147.962 525.276C140.893 539.682 133.944 543.104 133.944 543.104Z" fill="#c8d0fe" fill-rule="evenodd" opacity="1" stroke="#ffffff" stroke-linecap="round" stroke-linejoin="round" stroke-width="3.02966"/>
<path d="M144.878 549.177C144.878 549.177 148.515 532.051 156.019 519.817C163.522 507.584 179.123 497.148 179.123 497.148C179.123 497.148 180.559 496.433 181.383 501.916C183.475 515.827 181.877 550.834 181.877 550.834L144.878 549.177Z" fill="#c8d0fe" fill-rule="evenodd" opacity="1" stroke="#ffffff" stroke-linecap="round" stroke-linejoin="round" stroke-width="3.02966"/>
<path d="M894.083 562.76C894.083 562.76 902.205 551.424 884.603 519.298C869.449 491.642 857.839 495.307 857.839 495.307L875.91 528.065L894.083 562.76Z" fill="#c8d0fe" fill-rule="evenodd" opacity="1" stroke="#ffffff" stroke-linecap="round" stroke-linejoin="round" stroke-width="3.02966"/>
<path d="M844.625 503.363L857.602 503.958L884.314 551.367L845.392 551.216L844.625 503.363Z" fill="#c8d0fe" fill-rule="evenodd" opacity="1" stroke="#ffffff" stroke-linecap="round" stroke-linejoin="round" stroke-width="3.02966"/>
<path d="M851.689 495.344L885.763 552.608L858.513 495.495L851.689 495.344Z" fill="#c8d0fe" fill-rule="evenodd" opacity="1" stroke="#ffffff" stroke-linecap="round" stroke-linejoin="round" stroke-width="3.02966"/>
</g>
<g id="레이어-5" vectornator:layerName="레이어 5">
<path d="M132.609 557.864C132.609 557.864 130.765 552.432 134.054 545.51C136.812 539.706 149.144 531.471 154.47 513.44C158.221 500.738 170.917 488.86 170.917 488.86L376.698 489.547L376.652 498.421L179.568 498.001C179.568 498.001 166.341 505.076 157.375 517.835C148.41 530.594 143.707 549.036 143.707 549.036L132.609 557.864Z" fill="#ec0701" fill-rule="evenodd" opacity="1" stroke="#ffffff" stroke-linecap="round" stroke-linejoin="round" stroke-width="3.02966"/>
<path d="M406.516 489.603L406.463 496.588L613.663 499.113L614.299 492.923L406.516 489.603Z" fill="#ec0701" fill-rule="evenodd" opacity="1" stroke="#ffffff" stroke-linecap="round" stroke-linejoin="round" stroke-width="3.02966"/>
<path d="M647.58 499.954L856.628 503.928L852.418 495.184L647.069 492.492L647.58 499.954Z" fill="#ec0701" fill-rule="evenodd" opacity="1" stroke="#ffffff" stroke-linecap="round" stroke-linejoin="round" stroke-width="3.02966"/>
</g>
</svg>
